<svg xmlns="http://www.w3.org/2000/svg" width="1050" height="570"><rect width="1050" height="570" fill="#eef1ed"/><rect x="24" y="24" width="650" height="522" rx="10" fill="#fff"/><text x="46" y="50" font-family="sans-serif" font-weight="700" font-size="15" fill="#31443b">Irregular floor plan · Marma Points</text><polygon points="55,470 505,470 505,290 235,290 235,110 55,110" fill="#e9ece8" stroke="#263b32" stroke-width="3"/><polygon points="505.00000000000006,110.00000000000006 505,470.00000000000006 54.999999999999936,470 55,110" fill="none" stroke="#2876a8" stroke-width="2" stroke-dasharray="8 4"/><path d="M505.00000000000006 110.00000000000006L55 110M505.00000000000006 110.00000000000006L505 470.00000000000006" stroke="#70aaca" opacity=".55"/><path d="M505.00000000000006 150.00000000000006L55 150M455.00000000000006 110.00000000000006L455 470.00000000000006" stroke="#70aaca" opacity=".55"/><path d="M505.00000000000006 190.00000000000006L55 190M405.00000000000006 110.00000000000006L405 470.00000000000006" stroke="#70aaca" opacity=".55"/><path d="M505.00000000000006 230.00000000000006L55 230M355.00000000000006 110.00000000000006L355 470.00000000000006" stroke="#70aaca" opacity=".55"/><path d="M505.00000000000006 270.00000000000006L55 270M305 110.00000000000006L305 470.00000000000006" stroke="#70aaca" opacity=".55"/><path d="M505 310.00000000000006L54.99999999999993 310M255.00000000000003 110L254.99999999999997 470.00000000000006" stroke="#70aaca" opacity=".55"/><path d="M505 350.00000000000006L54.99999999999993 350M205.00000000000003 110L204.99999999999997 470" stroke="#70aaca" opacity=".55"/><path d="M505 390.00000000000006L54.99999999999993 390M155 110L154.99999999999994 470" stroke="#70aaca" opacity=".55"/><path d="M505 430.00000000000006L54.99999999999993 430M105 110L104.99999999999993 470" stroke="#70aaca" opacity=".55"/><path d="M505 470.00000000000006L54.99999999999993 470M55 110L54.99999999999993 470" stroke="#70aaca" opacity=".55"/><line x1="54.999999999999936" y1="470" x2="280" y2="290" stroke="#c29849" stroke-width="2" /><line x1="280" y1="290" x2="505.00000000000006" y2="110.00000000000006" stroke="#c29849" stroke-width="2" stroke-dasharray="7 5" opacity=".45"/><line x1="54.99999999999994" y1="433.3333333333333" x2="235" y2="265.33333333333337" stroke="#c29849" stroke-width="2" /><line x1="235" y1="265.33333333333337" x2="401.42857142857156" y2="110.00000000000006" stroke="#c29849" stroke-width="2" stroke-dasharray="7 5" opacity=".45"/><line x1="154.99999999999994" y1="470" x2="380.00000000000006" y2="290" stroke="#c29849" stroke-width="2" /><line x1="380.00000000000006" y1="290" x2="505.00000000000006" y2="190.00000000000006" stroke="#c29849" stroke-width="2" stroke-dasharray="7 5" opacity=".45"/><line x1="55" y1="110" x2="234.99999999999997" y2="254.00000000000003" stroke="#c29849" stroke-width="2" /><line x1="234.99999999999997" y1="254.00000000000003" x2="280" y2="290" stroke="#c29849" stroke-width="2" stroke-dasharray="7 5" opacity=".45"/><line x1="280" y1="290" x2="504.9999999999999" y2="469.99999999999994" stroke="#c29849" stroke-width="2" /><line x1="54.999999999999986" y1="190" x2="404.99999999999994" y2="470" stroke="#c29849" stroke-width="2" /><line x1="155" y1="110" x2="235" y2="174" stroke="#c29849" stroke-width="2" /><line x1="235" y1="174" x2="379.99999999999994" y2="290" stroke="#c29849" stroke-width="2" stroke-dasharray="7 5" opacity=".45"/><line x1="379.99999999999994" y1="290" x2="505" y2="390.0000000000001" stroke="#c29849" stroke-width="2" /><circle cx="241.53846153846155" cy="259.2307692307693" r="6" fill="white" stroke="#c92d35" stroke-width="2"/><text x="250.53846153846155" y="250.23076923076928" font-family="sans-serif" font-size="12" font-weight="700" fill="#8d2930" stroke="white" stroke-width="3" paint-order="stroke">M1</text><circle cx="195.38461538461536" cy="302.3076923076924" r="6" fill="#c92d35" stroke="white" stroke-width="2"/><text x="204.38461538461536" y="293.3076923076924" font-family="sans-serif" font-size="12" font-weight="700" fill="#8d2930" stroke="white" stroke-width="3" paint-order="stroke">M2</text><circle cx="230.00000000000003" cy="330" r="6" fill="#c92d35" stroke="white" stroke-width="2"/><text x="239.00000000000003" y="321" font-family="sans-serif" font-size="12" font-weight="700" fill="#8d2930" stroke="white" stroke-width="3" paint-order="stroke">M3</text><circle cx="287.69230769230774" cy="216.1538461538462" r="6" fill="white" stroke="#c92d35" stroke-width="2"/><text x="296.69230769230774" y="207.1538461538462" font-family="sans-serif" font-size="12" font-weight="700" fill="#8d2930" stroke="white" stroke-width="3" paint-order="stroke">M4</text><circle cx="280" cy="290" r="11" fill="none" stroke="#ffad18" stroke-width="3"/><circle cx="280" cy="290" r="6" fill="#c92d35" stroke="white" stroke-width="2"/><text x="289" y="281" font-family="sans-serif" font-size="12" font-weight="700" fill="#8d2930" stroke="white" stroke-width="3" paint-order="stroke">M5</text><circle cx="280" cy="370" r="6" fill="#c92d35" stroke="white" stroke-width="2"/><text x="289" y="361" font-family="sans-serif" font-size="12" font-weight="700" fill="#8d2930" stroke="white" stroke-width="3" paint-order="stroke">M6</text><circle cx="330" cy="250.00000000000003" r="6" fill="white" stroke="#c92d35" stroke-width="2"/><text x="339" y="241.00000000000003" font-family="sans-serif" font-size="12" font-weight="700" fill="#8d2930" stroke="white" stroke-width="3" paint-order="stroke">M7</text><circle cx="380" cy="290.00000000000006" r="6" fill="#c92d35" stroke="white" stroke-width="2"/><text x="389" y="281.00000000000006" font-family="sans-serif" font-size="12" font-weight="700" fill="#8d2930" stroke="white" stroke-width="3" paint-order="stroke">M8</text><circle cx="330.00000000000006" cy="330.00000000000006" r="6" fill="#c92d35" stroke="white" stroke-width="2"/><text x="339.00000000000006" y="321.00000000000006" font-family="sans-serif" font-size="12" font-weight="700" fill="#8d2930" stroke="white" stroke-width="3" paint-order="stroke">M9</text><path d="M273 290h14M280 283v14" stroke="#126b99" stroke-width="2"/><rect x="700" y="24" width="326" height="522" rx="12" fill="white" stroke="#d9c58f"/><text x="724" y="52" font-family="sans-serif" font-size="10" font-weight="700" fill="#96702a">DEBUG DETAILS</text><text x="724" y="76" font-family="serif" font-size="22" font-weight="700" fill="#31443b">Marma Debug</text><path d="M724 90H1002" stroke="#eee"/><g font-family="sans-serif" font-size="12" fill="#52635a"><text x="724" y="119">North</text><text x="978" y="119" text-anchor="end" font-weight="700">270.0°</text><text x="724" y="143">Grid</text><text x="978" y="143" text-anchor="end" font-weight="700">9 × 9</text><text x="724" y="167">Marma points</text><text x="978" y="167" text-anchor="end" font-weight="700">9</text><text x="724" y="191">Reference center</text><text x="978" y="191" text-anchor="end" font-weight="700">22.50, 18.00</text></g><text x="724" y="232" font-family="sans-serif" font-size="10" font-weight="700" fill="#96702a">SELECTED</text><text x="724" y="264" font-family="serif" font-size="26" font-weight="700" fill="#9e2831">M5</text><g font-family="sans-serif" font-size="12" fill="#52635a"><text x="724" y="295">Normalized</text><text x="978" y="295" text-anchor="end" font-weight="700">0.500000, 0.500000</text><text x="724" y="323">Status</text><text x="978" y="323" text-anchor="end" font-weight="700">ON_BOUNDARY</text><text x="724" y="351">Vansha A</text><text x="978" y="351" text-anchor="end" font-weight="700">V1</text><text x="724" y="379">Vansha B</text><text x="978" y="379" text-anchor="end" font-weight="700">V4</text></g></svg>